<mxfile host="app.diagrams.net" modified="2022-10-26T09:34:11.430Z" agent="5.0 (Macintosh; Intel Mac OS X 10_15_7) AppleWebKit/537.36 (KHTML, like Gecko) Chrome/106.0.0.0 Safari/537.36" etag="inDjmjd5odTPcSRO6vRe" version="20.5.1" type="github">
  <diagram id="YoJwAZ-RUl3W-m6Xv1cu" name="Page-1">
    <mxGraphModel dx="1426" dy="794" grid="1" gridSize="10" guides="1" tooltips="1" connect="1" arrows="1" fold="1" page="1" pageScale="1" pageWidth="850" pageHeight="1100" math="0" shadow="0">
      <root>
        <mxCell id="0" />
        <mxCell id="1" parent="0" />
        <mxCell id="VXQNlc5EsyGMvSzH5ayx-6" value="" style="rounded=1;whiteSpace=wrap;html=1;fontSize=14;fillColor=default;" vertex="1" parent="1">
          <mxGeometry x="310" y="310" width="440" height="300" as="geometry" />
        </mxCell>
        <mxCell id="VXQNlc5EsyGMvSzH5ayx-1" value="&lt;font style=&quot;font-size: 16px;&quot;&gt;Source: checkpoint&lt;/font&gt;" style="rounded=1;whiteSpace=wrap;html=1;fillColor=#f8cecc;strokeColor=#b85450;" vertex="1" parent="1">
          <mxGeometry x="360" y="380" width="160" height="60" as="geometry" />
        </mxCell>
        <mxCell id="VXQNlc5EsyGMvSzH5ayx-2" value="&lt;font style=&quot;font-size: 16px;&quot;&gt;Target: checkpoint&lt;/font&gt;" style="rounded=1;whiteSpace=wrap;html=1;fillColor=#d5e8d4;strokeColor=#82b366;" vertex="1" parent="1">
          <mxGeometry x="360" y="520" width="160" height="60" as="geometry" />
        </mxCell>
        <mxCell id="VXQNlc5EsyGMvSzH5ayx-3" value="&lt;font style=&quot;font-size: 14px;&quot;&gt;source:&amp;nbsp;the hash of any justified checkpoint&lt;/font&gt;" style="text;html=1;strokeColor=none;fillColor=none;align=center;verticalAlign=middle;whiteSpace=wrap;rounded=0;" vertex="1" parent="1">
          <mxGeometry x="550" y="390" width="160" height="40" as="geometry" />
        </mxCell>
        <mxCell id="VXQNlc5EsyGMvSzH5ayx-4" value="&lt;font style=&quot;font-size: 14px;&quot;&gt;target:&amp;nbsp;any checkpoint hash that is a descendent of source&lt;/font&gt;" style="text;html=1;strokeColor=none;fillColor=none;align=center;verticalAlign=middle;whiteSpace=wrap;rounded=0;" vertex="1" parent="1">
          <mxGeometry x="550" y="530" width="170" height="40" as="geometry" />
        </mxCell>
        <mxCell id="VXQNlc5EsyGMvSzH5ayx-5" value="" style="endArrow=classic;html=1;rounded=0;fontSize=14;strokeWidth=2;exitX=0.5;exitY=1;exitDx=0;exitDy=0;entryX=0.5;entryY=0;entryDx=0;entryDy=0;" edge="1" parent="1" source="VXQNlc5EsyGMvSzH5ayx-1" target="VXQNlc5EsyGMvSzH5ayx-2">
          <mxGeometry width="50" height="50" relative="1" as="geometry">
            <mxPoint x="400" y="520" as="sourcePoint" />
            <mxPoint x="450" y="470" as="targetPoint" />
          </mxGeometry>
        </mxCell>
        <mxCell id="VXQNlc5EsyGMvSzH5ayx-7" value="&lt;font style=&quot;font-size: 18px;&quot;&gt;Attestation Content&lt;/font&gt;" style="text;html=1;strokeColor=none;fillColor=none;align=center;verticalAlign=middle;whiteSpace=wrap;rounded=0;fontSize=14;" vertex="1" parent="1">
          <mxGeometry x="345" y="320" width="190" height="30" as="geometry" />
        </mxCell>
        <mxCell id="VXQNlc5EsyGMvSzH5ayx-8" value="" style="shape=umlActor;verticalLabelPosition=bottom;verticalAlign=top;html=1;outlineConnect=0;fontSize=18;fillColor=default;" vertex="1" parent="1">
          <mxGeometry x="70" y="400" width="30" height="60" as="geometry" />
        </mxCell>
        <mxCell id="VXQNlc5EsyGMvSzH5ayx-9" value="" style="shape=umlActor;verticalLabelPosition=bottom;verticalAlign=top;html=1;outlineConnect=0;fontSize=18;fillColor=default;" vertex="1" parent="1">
          <mxGeometry x="110" y="400" width="30" height="60" as="geometry" />
        </mxCell>
        <mxCell id="VXQNlc5EsyGMvSzH5ayx-10" value="" style="shape=umlActor;verticalLabelPosition=bottom;verticalAlign=top;html=1;outlineConnect=0;fontSize=18;fillColor=default;" vertex="1" parent="1">
          <mxGeometry x="150" y="400" width="30" height="60" as="geometry" />
        </mxCell>
        <mxCell id="VXQNlc5EsyGMvSzH5ayx-11" value="" style="shape=umlActor;verticalLabelPosition=bottom;verticalAlign=top;html=1;outlineConnect=0;fontSize=18;fillColor=default;" vertex="1" parent="1">
          <mxGeometry x="70" y="450" width="30" height="60" as="geometry" />
        </mxCell>
        <mxCell id="VXQNlc5EsyGMvSzH5ayx-12" value="" style="shape=umlActor;verticalLabelPosition=bottom;verticalAlign=top;html=1;outlineConnect=0;fontSize=18;fillColor=default;" vertex="1" parent="1">
          <mxGeometry x="110" y="450" width="30" height="60" as="geometry" />
        </mxCell>
        <mxCell id="VXQNlc5EsyGMvSzH5ayx-13" value="Validators" style="text;html=1;strokeColor=none;fillColor=none;align=center;verticalAlign=middle;whiteSpace=wrap;rounded=0;fontSize=18;" vertex="1" parent="1">
          <mxGeometry x="95" y="520" width="60" height="30" as="geometry" />
        </mxCell>
        <mxCell id="VXQNlc5EsyGMvSzH5ayx-14" value="" style="shape=umlActor;verticalLabelPosition=bottom;verticalAlign=top;html=1;outlineConnect=0;fontSize=18;fillColor=default;" vertex="1" parent="1">
          <mxGeometry x="150" y="450" width="30" height="60" as="geometry" />
        </mxCell>
        <mxCell id="VXQNlc5EsyGMvSzH5ayx-15" value="" style="endArrow=classic;html=1;rounded=0;strokeWidth=2;fontSize=18;dashed=1;" edge="1" parent="1">
          <mxGeometry width="50" height="50" relative="1" as="geometry">
            <mxPoint x="190" y="460.5" as="sourcePoint" />
            <mxPoint x="300" y="459.5" as="targetPoint" />
          </mxGeometry>
        </mxCell>
        <mxCell id="VXQNlc5EsyGMvSzH5ayx-16" value="&lt;span style=&quot;font-size: 16px;&quot;&gt;vote&lt;/span&gt;" style="text;html=1;strokeColor=none;fillColor=none;align=center;verticalAlign=middle;whiteSpace=wrap;rounded=0;fontSize=18;" vertex="1" parent="1">
          <mxGeometry x="210" y="430" width="60" height="30" as="geometry" />
        </mxCell>
      </root>
    </mxGraphModel>
  </diagram>
</mxfile>
